<svg xmlns="http://www.w3.org/2000/svg" xmlns:xlink="http://www.w3.org/1999/xlink" width="1366" zoomAndPan="magnify" viewBox="0 0 1024.5 576" height="768" preserveAspectRatio="xMidYMid meet" version="1.0"><defs><clipPath id="7fbb0595dd"><path d="M 431.699219 160.453125 L 661.835938 160.453125 L 661.835938 390.589844 L 431.699219 390.589844 Z M 431.699219 160.453125 " clip-rule="nonzero"/></clipPath></defs><g clip-path="url(#7fbb0595dd)"><path fill="#b3acfc" d="M 661.835938 275.589844 C 661.835938 212 610.289062 160.453125 546.695312 160.453125 C 483.105469 160.453125 431.558594 212 431.558594 275.589844 C 431.558594 339.183594 483.105469 390.730469 546.695312 390.730469 C 610.289062 390.730469 661.835938 339.183594 661.835938 275.589844 Z M 535.183594 321.648438 L 535.183594 257.332031 L 516.921875 275.589844 C 512.429688 280.082031 505.132812 280.082031 500.640625 275.589844 C 496.148438 271.101562 496.148438 263.800781 500.640625 259.3125 L 538.554688 221.394531 C 543.058594 216.894531 550.347656 216.894531 554.835938 221.394531 L 592.75 259.3125 C 597.242188 263.800781 597.242188 271.101562 592.75 275.589844 C 588.261719 280.082031 580.960938 280.082031 576.472656 275.589844 L 558.210938 257.332031 L 558.210938 321.648438 C 558.210938 328.003906 553.050781 333.160156 546.695312 333.160156 C 540.339844 333.160156 535.183594 328.003906 535.183594 321.648438 Z M 535.183594 321.648438 " fill-opacity="1" fill-rule="nonzero"/></g></svg>