<svg xmlns="http://www.w3.org/2000/svg" xmlns:xlink="http://www.w3.org/1999/xlink" width="1366" zoomAndPan="magnify" viewBox="0 0 1024.5 576" height="768" preserveAspectRatio="xMidYMid meet" version="1.0"><defs><clipPath id="d040d05d0a"><path d="M 424.832031 160 L 562 160 L 562 387.832031 L 424.832031 387.832031 Z M 424.832031 160 " clip-rule="nonzero"/></clipPath></defs><g clip-path="url(#d040d05d0a)"><path fill="#a098c4" d="M 538.085938 387.214844 C 536.597656 387.21875 535.125 387.074219 533.664062 386.785156 C 532.207031 386.496094 530.789062 386.066406 529.414062 385.496094 C 528.042969 384.925781 526.738281 384.226562 525.5 383.402344 C 524.265625 382.574219 523.121094 381.632812 522.070312 380.578125 L 431.46875 289.976562 C 430.945312 289.453125 430.445312 288.90625 429.976562 288.332031 C 429.503906 287.757812 429.0625 287.164062 428.652344 286.546875 C 428.238281 285.929688 427.859375 285.296875 427.507812 284.640625 C 427.160156 283.988281 426.839844 283.316406 426.558594 282.632812 C 426.273438 281.945312 426.023438 281.25 425.808594 280.539062 C 425.59375 279.828125 425.414062 279.109375 425.269531 278.382812 C 425.125 277.65625 425.015625 276.921875 424.941406 276.183594 C 424.867188 275.445312 424.832031 274.707031 424.832031 273.964844 C 424.832031 273.222656 424.867188 272.484375 424.941406 271.746094 C 425.015625 271.007812 425.125 270.273438 425.269531 269.546875 C 425.414062 268.816406 425.59375 268.097656 425.808594 267.390625 C 426.023438 266.679688 426.273438 265.980469 426.558594 265.296875 C 426.839844 264.613281 427.160156 263.941406 427.507812 263.289062 C 427.859375 262.632812 428.238281 262 428.652344 261.382812 C 429.0625 260.765625 429.503906 260.171875 429.976562 259.597656 C 430.445312 259.023438 430.945312 258.476562 431.46875 257.949219 L 522.070312 167.347656 C 522.59375 166.808594 523.136719 166.296875 523.710938 165.8125 C 524.28125 165.328125 524.878906 164.871094 525.496094 164.445312 C 526.113281 164.019531 526.75 163.625 527.40625 163.261719 C 528.0625 162.898438 528.734375 162.570312 529.421875 162.273438 C 530.113281 161.976562 530.816406 161.714844 531.53125 161.488281 C 532.246094 161.265625 532.96875 161.074219 533.703125 160.917969 C 534.4375 160.765625 535.175781 160.648438 535.921875 160.566406 C 536.667969 160.484375 537.417969 160.441406 538.167969 160.433594 C 538.917969 160.429688 539.664062 160.460938 540.410156 160.527344 C 541.160156 160.59375 541.902344 160.699219 542.636719 160.839844 C 543.375 160.984375 544.101562 161.160156 544.820312 161.375 C 545.539062 161.589844 546.246094 161.835938 546.941406 162.121094 C 547.632812 162.40625 548.3125 162.722656 548.976562 163.074219 C 549.636719 163.425781 550.28125 163.808594 550.90625 164.222656 C 551.53125 164.640625 552.132812 165.085938 552.714844 165.558594 C 553.292969 166.035156 553.847656 166.539062 554.378906 167.070312 C 554.910156 167.597656 555.414062 168.15625 555.886719 168.734375 C 556.363281 169.316406 556.808594 169.917969 557.222656 170.542969 C 557.640625 171.167969 558.023438 171.808594 558.375 172.472656 C 558.726562 173.136719 559.042969 173.8125 559.328125 174.507812 C 559.609375 175.203125 559.859375 175.910156 560.074219 176.628906 C 560.289062 177.347656 560.464844 178.074219 560.605469 178.8125 C 560.75 179.546875 560.851562 180.289062 560.921875 181.035156 C 560.988281 181.78125 561.019531 182.53125 561.011719 183.28125 C 561.007812 184.03125 560.960938 184.78125 560.882812 185.523438 C 560.800781 186.269531 560.683594 187.011719 560.527344 187.746094 C 560.375 188.480469 560.183594 189.203125 559.957031 189.917969 C 559.730469 190.632812 559.46875 191.335938 559.175781 192.023438 C 558.878906 192.714844 558.550781 193.386719 558.1875 194.042969 C 557.824219 194.699219 557.429688 195.335938 557.003906 195.953125 C 556.578125 196.570312 556.121094 197.164062 555.636719 197.738281 C 555.152344 198.308594 554.636719 198.855469 554.097656 199.378906 L 479.511719 273.964844 L 554.097656 348.550781 C 554.886719 349.339844 555.609375 350.179688 556.273438 351.074219 C 556.9375 351.96875 557.53125 352.910156 558.058594 353.890625 C 558.582031 354.871094 559.03125 355.886719 559.40625 356.9375 C 559.78125 357.984375 560.078125 359.054688 560.296875 360.148438 C 560.511719 361.242188 560.648438 362.34375 560.703125 363.457031 C 560.757812 364.566406 560.730469 365.679688 560.621094 366.785156 C 560.511719 367.894531 560.320312 368.988281 560.050781 370.070312 C 559.78125 371.148438 559.433594 372.203125 559.007812 373.234375 C 558.582031 374.261719 558.082031 375.253906 557.507812 376.210938 C 556.9375 377.164062 556.296875 378.074219 555.589844 378.933594 C 554.882812 379.792969 554.117188 380.597656 553.292969 381.347656 C 552.46875 382.09375 551.59375 382.777344 550.667969 383.398438 C 549.738281 384.015625 548.773438 384.5625 547.765625 385.039062 C 546.761719 385.515625 545.722656 385.917969 544.660156 386.238281 C 543.59375 386.5625 542.507812 386.808594 541.40625 386.96875 C 540.304688 387.132812 539.199219 387.214844 538.085938 387.214844 Z M 538.085938 387.214844 " fill-opacity="1" fill-rule="nonzero"/></g></svg>